<svg width="32" height="32" xmlns="http://www.w3.org/2000/svg"><defs><linearGradient x1="100%" y1="0%" x2="0%" y2="100%" id="a"><stop stop-color="#00FFBE" offset="0%"/><stop stop-color="#7247FF" offset="100%"/></linearGradient></defs><path d="M676.001 385a1 1 0 1 1 0 2 1 1 0 0 1 0-2zm4.142.545a1 1 0 1 1-.518 1.932 1 1 0 0 1 .518-1.932zm3.86 1.599a1 1 0 1 1-1 1.732 1 1 0 0 1 1-1.732zm3.313 2.543a1 1 0 1 1-1.414 1.414 1 1 0 0 1 1.414-1.414zM689.86 393a1 1 0 1 1-1.732 1 1 1 0 0 1 1.732-1zm1.599 3.859a1 1 0 1 1-1.932.518 1 1 0 0 1 1.932-.518zm.545 4.141a1 1 0 1 1-2 0 1 1 0 0 1 2 0zm-.545 4.142a1 1 0 1 1-1.932-.518 1 1 0 0 1 1.932.518zm-1.599 3.86a1 1 0 1 1-1.732-1 1 1 0 0 1 1.732 1zm-2.543 3.313a1 1 0 1 1-1.414-1.414 1 1 0 0 1 1.414 1.414zm-3.314 2.543a1 1 0 1 1-1-1.732 1 1 0 0 1 1 1.732zm-3.86 1.599a1 1 0 1 1-.517-1.932 1 1 0 0 1 .518 1.932zm-4.14.545a1 1 0 1 1 0-2 1 1 0 0 1 0 2zm-4.142-.545a1 1 0 1 1 .518-1.932 1 1 0 0 1-.518 1.932zm-3.86-1.599a1 1 0 1 1 1-1.732 1 1 0 0 1-1 1.732zm-3.313-2.543a1 1 0 1 1 1.414-1.414 1 1 0 0 1-1.414 1.414zm-2.543-3.314a1 1 0 1 1 1.732-1 1 1 0 0 1-1.732 1zm-1.599-3.86a1 1 0 1 1 1.932-.517 1 1 0 0 1-1.932.518zm-.545-4.14a1 1 0 1 1 2 0 1 1 0 0 1-2 0zm.545-4.142a1 1 0 1 1 1.932.518 1 1 0 0 1-1.932-.518zm1.599-3.86a1 1 0 1 1 1.732 1 1 1 0 0 1-1.732-1zm2.543-3.313a1 1 0 1 1 1.414 1.414 1 1 0 0 1-1.414-1.414zm3.314-2.543a1 1 0 1 1 1 1.732 1 1 0 0 1-1-1.732zm3.859-1.599a1 1 0 1 1 .518 1.932 1 1 0 0 1-.518-1.932z" transform="translate(-660 -385)" fill="url(#a)" fill-rule="evenodd"/></svg>